<svg id="Layer_1" enable-background="new 0 0 256 256" height="20" viewBox="0 0 256 256" width="20" xmlns="http://www.w3.org/2000/svg"><circle cx="128" cy="128" fill="#382b73" r="120"/><circle cx="128" cy="128" fill="#473080" r="102.5"/><path d="m198.883 184.843-5.923-5.923c-2.45-2.45-5.91-3.25-9.03-2.42h-.001l-11.599-11.6s0 0 0-.001v-.01c8.04-10.77 12.8-24.13 12.8-38.6 0-35.69-28.93-64.62-64.62-64.62-29.281 0-53.999 19.479-61.936 46.183-10.401 2.779-18.064 12.264-18.064 23.542 0 12.816 9.895 23.313 22.46 24.288.549 1.072 1.125 2.127 1.731 3.163.001.001.001.002.002.004 11.21 19.166 31.997 32.051 55.807 32.051 14.479 0 27.839-4.76 38.609-12.789l11.601 11.602v.008c-.83 3.12-.03 6.57 2.42 9.02l6.089 6.09c.706.705 1.831.793 2.622.186 1.834-1.408 3.61-2.897 5.328-4.455 2.16-1.93 4.22-3.99 6.18-6.14 2.027-2.229 3.942-4.558 5.731-6.985.584-.794.488-1.899-.207-2.594z" fill="#382b73"/><path d="m159.875 153.892h18.682v28.211h-18.682z" fill="#1caee4" transform="matrix(.707 -.707 .707 .707 -69.23 168.852)"/><path d="m161.855 158.673h5.161v28.211h-5.161z" fill="#009add" transform="matrix(.707 -.707 .707 .707 -74.01 166.872)"/><path d="m198.883 177.843c.695.695.791 1.8.208 2.592-1.789 2.428-3.703 4.756-5.731 6.985-1.96 2.15-4.02 4.21-6.18 6.14-1.719 1.559-3.495 3.047-5.328 4.455-.791.608-1.916.52-2.622-.186l-6.089-6.09c-2.45-2.45-3.25-5.9-2.42-9.02v-.01c.41-1.53 1.22-2.98 2.42-4.18l.35-.35 5.76-5.76.52-.53c1.19-1.18 2.64-1.98 4.16-2.39 3.12-.83 6.58-.03 9.03 2.42z" fill="#fede3a"/><path d="m187.18 193.56c-1.719 1.559-3.495 3.047-5.328 4.455-.791.608-1.916.52-2.622-.186l-6.089-6.09c-2.45-2.45-3.25-5.9-2.42-9.02v-.01c.41-1.53 1.22-2.98 2.42-4.18l.35-.35 5.76-5.76c-2.21 2.21-3.08 5.24-2.62 8.1v.01c.3 1.87 1.17 3.65 2.62 5.1z" fill="#e7ad27"/><path d="m120.51 54.67c-35.69 0-64.62 28.93-64.62 64.62 0 35.68 28.93 64.61 64.62 64.61 14.48 0 27.84-4.76 38.61-12.79 1.39-1.04 2.73-2.13 4.03-3.27 3.4-2.99 6.47-6.31 9.18-9.94v-.01c8.04-10.77 12.8-24.13 12.8-38.6 0-35.69-28.93-64.62-64.62-64.62z" fill="#1caee4"/><path d="m120.51 64.01c-30.53 0-55.28 24.75-55.28 55.28s24.75 55.28 55.28 55.28c12.57 0 24.15-4.19 33.43-11.25.01 0 .01-.01.02-.01.88-.67 1.73-1.37 2.57-2.09 2.94-2.53 5.62-5.36 7.97-8.45.01-.02.03-.03.04-.05 7.06-9.28 11.25-20.86 11.25-33.43 0-30.53-24.75-55.28-55.28-55.28z" fill="#009add"/><path d="m64.88 105.024c-2.682 0-5.262.434-7.675 1.234-.862 4.209-1.315 8.568-1.315 13.032 0 12.667 3.646 24.483 9.946 34.456 13.016-.502 23.414-11.213 23.414-24.351 0-13.46-10.911-24.371-24.37-24.371z" fill="#009add"/><path d="m168.491 119.294c0 12.43-4.73 23.75-12.48 32.27-8.78 9.65-21.43 15.7-35.5 15.7-14.15 0-26.87-6.12-35.64-15.86-7.67-8.5-12.34-19.76-12.34-32.11 0-26.5 21.48-47.98 47.98-47.98s47.98 21.48 47.98 47.98z" fill="#e43d91"/><circle cx="120.441" cy="119.294" fill="#ef5a9d" r="39"/><path d="m141.556 102.58c-5.873-5.873-15.428-5.873-21.301 0-4.468 4.468-5.64 11.249-3.054 16.91l-18.178 18.178c-.272.272-.447.626-.498 1.008l-.767 5.732c-.073.542.111 1.086.498 1.473s.931.571 1.473.498l5.732-.767c.381-.051.736-.226 1.008-.498l18.178-18.178c5.66 2.586 12.442 1.414 16.91-3.054 5.872-5.873 5.872-15.429-.001-21.302zm-6.179 11.108-4.929-4.929c-1.089-1.089-1.089-2.854 0-3.943s2.854-1.089 3.943 0l4.929 4.929c1.089 1.089 1.089 2.854 0 3.943-1.088 1.089-2.854 1.089-3.943 0z" fill="#e43d91"/><path d="m74.16 106.854c-1.062 3.967-1.629 8.137-1.629 12.44 0 10.418 3.323 20.061 8.967 27.925 4.769-4.448 7.752-10.788 7.752-17.825 0-10.173-6.234-18.89-15.09-22.54z" fill="#a72973"/><path d="m141.556 99.58c-5.873-5.873-15.428-5.873-21.301 0-4.468 4.468-5.64 11.249-3.054 16.91l-18.178 18.178c-.272.272-.447.626-.498 1.008l-.767 5.732c-.073.542.111 1.086.498 1.473s.931.571 1.473.498l5.732-.767c.381-.051.736-.226 1.008-.498l18.178-18.178c5.66 2.586 12.442 1.414 16.91-3.054 5.872-5.873 5.872-15.429-.001-21.302zm-6.179 11.108-4.929-4.929c-1.089-1.089-1.089-2.854 0-3.943s2.854-1.089 3.943 0l4.929 4.929c1.089 1.089 1.089 2.854 0 3.943-1.088 1.089-2.854 1.089-3.943 0z" fill="#fede3a"/><g fill="#f7cb15"><path d="m141.21 112.577c1.089-1.089 1.089-2.854 0-3.943l-1.889-1.889c1.089 1.089 1.089 2.854 0 3.943s-2.854 1.089-3.943 0l1.889 1.889c1.088 1.089 2.854 1.089 3.943 0z"/><path d="m99.645 143.38c.002-.028-.002-.055.002-.083l.767-5.732c.051-.381.226-.736.498-1.008l18.178-18.178c-2.586-5.661-1.414-12.442 3.054-16.91 5.554-5.554 14.397-5.848 20.309-.897-.284-.339-.578-.674-.897-.992-5.873-5.873-15.428-5.873-21.301 0-4.468 4.468-5.64 11.249-3.054 16.91l-18.178 18.178c-.272.272-.447.626-.498 1.008l-.767 5.732c-.073.542.111 1.086.498 1.473.366.366.876.543 1.389.499z"/><path d="m116.077 127.255.39-.39c.626-.626.626-1.641 0-2.267l-1.798-1.798-2.656 2.656 1.798 1.798c.625.627 1.64.627 2.266.001z"/><path d="m109.171 134.162.39-.39c.626-.626.626-1.641 0-2.267l-1.798-1.798-2.656 2.656 1.798 1.798c.625.627 1.64.627 2.266.001z"/></g><circle cx="64.88" cy="124.394" fill="#fff" r="24.37"/><path d="m76.7 120.154h-7.617c-.436 0-.823-.281-.957-.695l-2.354-7.244c-.301-.927-1.613-.927-1.914 0l-2.354 7.244c-.135.415-.521.695-.957.695h-7.617c-.638 0-1.032.534-1.007 1.064v2.783c-.014.31.113.63.416.85l5.998 4.358-1.824 5.613c-.041.127-.057.251-.051.37v2.783c-.037.793.891 1.363 1.6.848l6.162-4.477c.353-.256.83-.256 1.183 0l6.162 4.477c.708.515 1.637-.055 1.6-.848v-2.783c.006-.118-.01-.242-.051-.37l-1.824-5.613 5.998-4.358c.303-.22.429-.54.416-.85v-2.783c.024-.53-.37-1.064-1.008-1.064z" fill="#e6e7e8"/><path d="m73.168 132.191c.006-.118-.01-.242-.051-.37l-1.824-5.613 5.998-4.358c.303-.22.429-.539.416-.849v-2.783c.025-.53-.369-1.064-1.007-1.064h-7.617c-.436 0-.822-.281-.957-.695l-2.354-7.244c-.301-.927-1.613-.927-1.914 0l-2.354 7.244c-.135.415-.521.695-.957.695h-7.617c-.638 0-1.032.534-1.007 1.064v2.783c-.014.31.113.629.416.849l5.998 4.358-1.824 5.613c-.041.127-.057.251-.051.37v2.783c-.037.793.891 1.363 1.6.848l6.162-4.477c.353-.256.83-.256 1.183 0l6.162 4.477c.708.515 1.637-.055 1.6-.848v-2.783z" fill="#009add"/><path d="m65.772 109.215 2.354 7.244c.135.415.521.695.957.695h7.617c.975 0 1.38 1.248.592 1.821l-6.162 4.477c-.353.256-.5.71-.366 1.125l2.354 7.244c.301.927-.76 1.698-1.549 1.125l-6.162-4.477c-.353-.256-.83-.256-1.183 0l-6.162 4.477c-.789.573-1.85-.198-1.549-1.125l2.354-7.244c.135-.415-.013-.869-.366-1.125l-6.162-4.477c-.789-.573-.383-1.821.592-1.821h7.617c.436 0 .822-.281.957-.695l2.354-7.244c.3-.927 1.612-.927 1.913 0z" fill="#1caee4"/></svg>